<svg width="106" height="107" viewBox="0 0 106 107" fill="none" xmlns="http://www.w3.org/2000/svg">
<path d="M26.5 75.7917H79.5M26.5 61.8371C22.0213 60.8663 18.0913 58.1774 15.5389 54.3378C12.9865 50.4981 12.0114 45.8077 12.8193 41.2562C13.6271 36.7047 16.1547 32.6479 19.8689 29.9415C23.5831 27.2351 28.1935 26.0908 32.7275 26.75C33.8433 24.1937 35.4152 21.8664 37.365 19.8842C39.4163 17.8082 41.8533 16.1612 44.5362 15.0374C47.2191 13.9136 50.0953 13.3351 53 13.3351C55.9047 13.3351 58.7809 13.9136 61.4638 15.0374C64.1467 16.1612 66.5836 17.8082 68.635 19.8842C70.5847 21.8664 72.1567 24.1937 73.2725 26.75C77.8065 26.0908 82.4169 27.2351 86.1311 29.9415C89.8453 32.6479 92.3729 36.7047 93.1807 41.2562C93.9885 45.8077 93.0134 50.4981 90.4611 54.3378C87.9087 58.1774 83.9787 60.8663 79.5 61.8371V93.625H26.5V61.8371Z" stroke="black" stroke-width="2" stroke-linecap="round" stroke-linejoin="round"/>
</svg>
